<svg xmlns="http://www.w3.org/2000/svg" width="38" height="24" viewBox="0 0 38 24" fill="none"><script xmlns="" id="nimlmejbmnecnaghgmbahmbaddhjbecg"/><script xmlns=""/><script xmlns=""/>
    <rect x="0.5" y="0.5" width="37" height="23" rx="1.5" fill="white"/>
    <path d="M22.5043 5.71042H15.4771V18.2896H22.5043V5.71042Z" fill="#FF5F00"/>
    <path d="M15.9233 12C15.9222 10.7885 16.1978 9.5927 16.7292 8.50301C17.2607 7.41333 18.034 6.45837 18.9907 5.71042C17.806 4.78278 16.3831 4.2059 14.8848 4.04571C13.3864 3.88551 11.8731 4.14846 10.5177 4.80452C9.1623 5.46058 8.01954 6.48326 7.22005 7.75568C6.42055 9.0281 5.99658 10.4989 5.99658 12C5.99658 13.5011 6.42055 14.9719 7.22005 16.2443C8.01954 17.5167 9.1623 18.5394 10.5177 19.1955C11.8731 19.8515 13.3864 20.1145 14.8848 19.9543C16.3831 19.7941 17.806 19.2172 18.9907 18.2896C18.034 17.5416 17.2607 16.5867 16.7292 15.497C16.1978 14.4073 15.9222 13.2115 15.9233 12Z" fill="#EB001B"/>
    <path d="M31.9845 12C31.9845 13.5011 31.5606 14.9719 30.7611 16.2443C29.9617 17.5167 28.819 18.5394 27.4636 19.1955C26.1082 19.8515 24.5949 20.1145 23.0966 19.9543C21.5983 19.7941 20.1754 19.2172 18.9907 18.2896C19.9466 17.5409 20.7193 16.5858 21.2507 15.4963C21.782 14.4067 22.0581 13.2113 22.0581 12C22.0581 10.7887 21.782 9.59326 21.2507 8.50375C20.7193 7.41424 19.9466 6.45912 18.9907 5.71041C20.1754 4.78278 21.5983 4.20589 23.0966 4.0457C24.5949 3.88551 26.1082 4.14848 27.4636 4.80454C28.819 5.4606 29.9617 6.48329 30.7611 7.7557C31.5606 9.02812 31.9845 10.4989 31.9845 12Z" fill="#F79E1B"/>
    <path d="M31.2184 16.9573V16.6997H31.3226V16.6473H31.0571V16.6997H31.1614V16.9573H31.2184ZM31.7338 16.9573V16.6467H31.6524L31.5588 16.8603L31.4652 16.6467H31.3838V16.9573H31.4412V16.723L31.529 16.925H31.5886L31.6764 16.7225V16.9573H31.7338Z" fill="#F79E1B"/>
    <rect x="0.5" y="0.5" width="37" height="23" rx="1.5" stroke="#929DB6"/>
    </svg>