<svg xmlns="http://www.w3.org/2000/svg" width="38" height="24" viewBox="0 0 38 24" fill="none"><script xmlns="" id="nimlmejbmnecnaghgmbahmbaddhjbecg"/><script xmlns=""/><script xmlns=""/>
    <rect x="0.5" y="0.5" width="37" height="23" rx="1.5" fill="white"/>
    <g clip-path="url(#clip0_4564_24767)">
    <path d="M15.1497 7.17628L10.9602 16.8484H8.22683L6.16533 9.12961C6.04017 8.65418 5.93133 8.48 5.55067 8.27971C4.92933 7.95345 3.903 7.64752 3 7.45754L3.06133 7.17628H7.46117C8.022 7.17628 8.52617 7.53753 8.6535 8.16246L9.74233 13.7592L12.4333 7.17628H15.1497ZM25.8595 13.6905C25.8705 11.1378 22.2115 10.9971 22.2367 9.85678C22.2445 9.50973 22.586 9.14074 23.3335 9.04655C23.704 8.99962 24.7248 8.96382 25.8827 9.47941L26.3368 7.42835C25.7147 7.20983 24.9142 6.99953 23.9182 6.99953C21.3623 6.99953 19.5637 8.31422 19.5485 10.1967C19.532 11.5892 20.8323 12.3662 21.812 12.8289C22.8198 13.3027 23.158 13.6072 23.1542 14.031C23.147 14.6798 22.3503 14.9662 21.6058 14.9775C20.3062 14.9968 19.552 14.6372 18.9508 14.3668L18.4822 16.4857C19.0863 16.7539 20.2015 16.9879 21.3577 16.9997C24.0742 16.9997 25.8512 15.7013 25.8595 13.6905ZM32.6085 16.8486H35L32.9125 7.17628H30.7052C30.2088 7.17628 29.7902 7.45593 29.6048 7.88588L25.7247 16.8484H28.4398L28.979 15.4036H32.2965L32.6087 16.8484L32.6085 16.8486ZM29.7233 13.4214L31.0843 9.78986L31.8677 13.4214H29.7235H29.7233ZM18.8443 7.17628L16.7062 16.8484H14.1205L16.2595 7.17628H18.8443Z" fill="#1434CB"/>
    </g>
    <rect x="0.5" y="0.5" width="37" height="23" rx="1.5" stroke="#929DB6"/>
    <defs>
    <clipPath id="clip0_4564_24767">
    <rect width="32" height="10" fill="white" transform="translate(3 7)"/>
    </clipPath>
    </defs>
    </svg>